<?xml version="1.0" encoding="utf-8"?>
<!-- Generator: Adobe Illustrator 24.1.1, SVG Export Plug-In . SVG Version: 6.00 Build 0)  -->
<svg version="1.1" id="Layer_1" xmlns="http://www.w3.org/2000/svg" xmlns:xlink="http://www.w3.org/1999/xlink" x="0px" y="0px"
	 viewBox="0 0 697.78 483.78" style="enable-background:new 0 0 697.78 483.78;" xml:space="preserve">
<style type="text/css">
	.st0{fill-rule:evenodd;clip-rule:evenodd;fill:url(#SVGID_1_);}
	.st1{fill-rule:evenodd;clip-rule:evenodd;fill:#006591;}
	.st2{filter:url(#Adobe_OpacityMaskFilter);}
	.st3{fill-rule:evenodd;clip-rule:evenodd;fill:url(#SVGID_3_);}
	.st4{mask:url(#SVGID_2_);fill-rule:evenodd;clip-rule:evenodd;fill:url(#SVGID_4_);}
	.st5{filter:url(#Adobe_OpacityMaskFilter_1_);}
	.st6{filter:url(#Adobe_OpacityMaskFilter_2_);}
	.st7{filter:url(#Adobe_OpacityMaskFilter_3_);}
	.st8{mask:url(#SVGID_5_);fill-rule:evenodd;clip-rule:evenodd;fill:url(#SVGID_6_);}
	.st9{fill-rule:evenodd;clip-rule:evenodd;fill:url(#SVGID_7_);}
	.st10{fill-rule:evenodd;clip-rule:evenodd;fill:#1B3865;}
	.st11{fill-rule:evenodd;clip-rule:evenodd;fill:url(#SVGID_8_);}
	.st12{filter:url(#Adobe_OpacityMaskFilter_4_);}
	.st13{fill-rule:evenodd;clip-rule:evenodd;fill:url(#SVGID_10_);}
	.st14{mask:url(#SVGID_9_);fill-rule:evenodd;clip-rule:evenodd;fill:url(#SVGID_11_);}
	.st15{filter:url(#Adobe_OpacityMaskFilter_5_);}
	.st16{fill-rule:evenodd;clip-rule:evenodd;fill:url(#SVGID_13_);}
	.st17{mask:url(#SVGID_12_);fill-rule:evenodd;clip-rule:evenodd;fill:url(#SVGID_14_);}
	.st18{filter:url(#Adobe_OpacityMaskFilter_6_);}
	.st19{fill-rule:evenodd;clip-rule:evenodd;fill:url(#SVGID_16_);}
	.st20{mask:url(#SVGID_15_);fill-rule:evenodd;clip-rule:evenodd;fill:url(#SVGID_17_);}
</style>
<g>
	<g>
		<g>
			<linearGradient id="SVGID_1_" gradientUnits="userSpaceOnUse" x1="230.1659" y1="277.0414" x2="364.902" y2="142.3053">
				<stop  offset="0" style="stop-color:#006591"/>
				<stop  offset="1" style="stop-color:#7CBFBB"/>
			</linearGradient>
			<path class="st0" d="M348.88,7.66c68.93,0,124.82,55.9,124.83,124.82c0,34.46-13.98,65.67-36.57,88.26L262.6,395.27l-43.13-43.13
				L394,177.6c11.55-11.55,18.69-27.5,18.69-45.12c0-35.23-28.57-63.81-63.81-63.81l-21.96-30.5L348.88,7.66z"/>
			<path class="st1" d="M4.41,352.13c0,68.93,55.9,124.82,124.82,124.83c34.47-0.01,65.67-13.98,88.26-36.57l45.12-45.12l64.7,64.7
				c11.91,11.91,31.23,11.91,43.14,0c11.91-11.91,11.91-31.23,0-43.14L217.49,263.87c-22.59-22.59-53.79-36.57-88.26-36.57
				C60.31,227.31,4.41,283.2,4.41,352.13L4.41,352.13z M174.35,397.25c-11.55,11.55-27.5,18.69-45.12,18.69
				c-35.23,0.01-63.81-28.57-63.81-63.81c0-35.24,28.58-63.82,63.81-63.81c17.62,0,33.57,7.15,45.12,18.7l45.12,45.12L174.35,397.25
				z"/>
			<defs>
				<filter id="Adobe_OpacityMaskFilter" filterUnits="userSpaceOnUse" x="129.23" y="352.14" width="133.38" height="124.82">
					<feColorMatrix  type="matrix" values="1 0 0 0 0  0 1 0 0 0  0 0 1 0 0  0 0 0 1 0"/>
				</filter>
			</defs>
			<mask maskUnits="userSpaceOnUse" x="129.23" y="352.14" width="133.38" height="124.82" id="SVGID_2_">
				<g class="st2">
					<linearGradient id="SVGID_3_" gradientUnits="userSpaceOnUse" x1="239.0337" y1="324.4586" x2="60.2733" y2="503.219">
						<stop  offset="0" style="stop-color:#FFFFFF"/>
						<stop  offset="0.7" style="stop-color:#000000"/>
					</linearGradient>
					<rect x="35.96" y="348.78" class="st3" width="227.39" height="130.13"/>
				</g>
			</mask>
			<linearGradient id="SVGID_4_" gradientUnits="userSpaceOnUse" x1="148.3522" y1="487.9953" x2="224.9613" y2="355.3044">
				<stop  offset="0" style="stop-color:#FFFFFF;stop-opacity:0"/>
				<stop  offset="1" style="stop-color:#006591"/>
			</linearGradient>
			<path class="st4" d="M129.23,476.96c34.47-0.01,65.67-13.98,88.26-36.57l45.12-45.11l-43.14-43.14l-45.12,45.11
				c-11.55,11.55-27.5,18.69-45.12,18.69"/>
			<defs>
				<filter id="Adobe_OpacityMaskFilter_1_" filterUnits="userSpaceOnUse" x="262.61" y="265.86" width="86.27" height="86.28">
					<feColorMatrix  type="matrix" values="1 0 0 0 0  0 1 0 0 0  0 0 1 0 0  0 0 0 1 0"/>
				</filter>
			</defs>
			<mask maskUnits="userSpaceOnUse" x="262.61" y="265.86" width="86.27" height="86.28" id="SVGID_5_">
				<g class="st5">
					<defs>
						<filter id="Adobe_OpacityMaskFilter_2_" filterUnits="userSpaceOnUse" x="260.72" y="263.34" width="89.38" height="89.38">
							<feFlood  style="flood-color:white;flood-opacity:1" result="back"/>
							<feBlend  in="SourceGraphic" in2="back" mode="normal"/>
						</filter>
					</defs>
					<mask maskUnits="userSpaceOnUse" x="260.72" y="263.34" width="89.38" height="89.38" id="SVGID_5_">
						<g class="st6">
							<defs>
								<filter id="Adobe_OpacityMaskFilter_3_" filterUnits="userSpaceOnUse" x="260.72" y="263.34" width="89.38" height="89.38">
									<feFlood  style="flood-color:white;flood-opacity:1" result="back"/>
									<feBlend  in="SourceGraphic" in2="back" mode="normal"/>
								</filter>
							</defs>
							<mask maskUnits="userSpaceOnUse" x="260.72" y="263.34" width="89.38" height="89.38" id="SVGID_5_">
								<g class="st7">
								</g>
							</mask>
							<linearGradient id="SVGID_6_" gradientUnits="userSpaceOnUse" x1="260.7216" y1="352.7185" x2="350.1018" y2="263.3383">
								<stop  offset="0" style="stop-color:#B3B3B3"/>
								<stop  offset="1" style="stop-color:#FFFFFF"/>
							</linearGradient>
							<rect x="260.72" y="263.34" class="st8" width="89.38" height="89.38"/>
						</g>
					</mask>
					<linearGradient id="SVGID_7_" gradientUnits="userSpaceOnUse" x1="260.7216" y1="352.7185" x2="350.1018" y2="263.3383">
						<stop  offset="0" style="stop-color:#FFFFFF"/>
						<stop  offset="1" style="stop-color:#000000"/>
					</linearGradient>
					<rect x="260.72" y="263.34" class="st9" width="89.38" height="89.38"/>
				</g>
			</mask>

				<rect x="275.24" y="278.49" transform="matrix(0.7071 -0.7071 0.7071 0.7071 -128.9429 306.6953)" class="st10" width="61.01" height="61"/>
			<linearGradient id="SVGID_8_" gradientUnits="userSpaceOnUse" x1="612.256" y1="395.8552" x2="305.1255" y2="88.7247">
				<stop  offset="0" style="stop-color:#31A07F"/>
				<stop  offset="1" style="stop-color:#7CBFBB"/>
			</linearGradient>
			<path class="st11" d="M480.27,263.87c22.59-22.59,53.79-36.56,88.26-36.57c68.93,0.01,124.82,55.9,124.82,124.83
				c0,68.92-55.9,124.82-124.82,124.82c-34.46,0-65.67-13.98-88.26-36.57L260.63,220.74c-22.59-22.59-36.57-53.79-36.57-88.26
				c0-68.92,55.89-124.82,124.82-124.82v61.01c-35.23,0-63.81,28.58-63.81,63.81c0,17.62,7.15,33.57,18.69,45.12l219.65,219.65
				c11.55,11.54,27.5,18.69,45.12,18.69c35.23,0,63.81-28.58,63.81-63.81c0-35.24-28.58-63.81-63.81-63.81
				c-17.62,0-33.57,7.14-45.12,18.69c-11.91,11.91-31.23,11.91-43.14,0C468.36,295.1,468.36,275.78,480.27,263.87z"/>
			<defs>
				<filter id="Adobe_OpacityMaskFilter_4_" filterUnits="userSpaceOnUse" x="224.04" y="24.77" width="188.64" height="107.53">
					<feColorMatrix  type="matrix" values="1 0 0 0 0  0 1 0 0 0  0 0 1 0 0  0 0 0 1 0"/>
				</filter>
			</defs>
			<mask maskUnits="userSpaceOnUse" x="224.04" y="24.77" width="188.64" height="107.53" id="SVGID_9_">
				<g class="st12">
					<linearGradient id="SVGID_10_" gradientUnits="userSpaceOnUse" x1="414.5081" y1="78.4825" x2="219.9747" y2="78.4825">
						<stop  offset="0" style="stop-color:#FFFFFF"/>
						<stop  offset="0.7" style="stop-color:#000000"/>
					</linearGradient>
					<rect x="219.97" y="21.31" class="st13" width="194.53" height="114.35"/>
				</g>
			</mask>
			<linearGradient id="SVGID_11_" gradientUnits="userSpaceOnUse" x1="224.0449" y1="78.5358" x2="412.6866" y2="78.5358">
				<stop  offset="0" style="stop-color:#FFFFFF;stop-opacity:0"/>
				<stop  offset="1" style="stop-color:#006591"/>
			</linearGradient>
			<path class="st14" d="M348.87,68.49c35.24,0,63.81,28.58,63.81,63.81c0-59.38-48.15-107.53-107.53-107.53
				c-8.28,0-16.33,0.93-24.07,2.7c-7.4,4.8-14.26,10.36-20.47,16.57c-22.59,22.59-36.57,53.79-36.57,88.26h61.03
				c-0.01-17.62,7.14-33.57,18.68-45.12C315.31,75.63,331.26,68.49,348.87,68.49z"/>
			<defs>
				<filter id="Adobe_OpacityMaskFilter_5_" filterUnits="userSpaceOnUse" x="21.71" y="288.32" width="107.53" height="188.64">
					<feColorMatrix  type="matrix" values="1 0 0 0 0  0 1 0 0 0  0 0 1 0 0  0 0 0 1 0"/>
				</filter>
			</defs>
			<mask maskUnits="userSpaceOnUse" x="21.71" y="288.32" width="107.53" height="188.64" id="SVGID_12_">
				<g class="st15">

						<linearGradient id="SVGID_13_" gradientUnits="userSpaceOnUse" x1="39.7181" y1="324.8274" x2="-154.8154" y2="324.8274" gradientTransform="matrix(0 -1 1 0 -249.4109 326.2138)">
						<stop  offset="0" style="stop-color:#FFFFFF"/>
						<stop  offset="0.7" style="stop-color:#000000"/>
					</linearGradient>
					<rect x="18.24" y="286.5" class="st16" width="114.35" height="194.53"/>
				</g>
			</mask>

				<linearGradient id="SVGID_14_" gradientUnits="userSpaceOnUse" x1="-150.7452" y1="324.8808" x2="37.8965" y2="324.8808" gradientTransform="matrix(0 -1 1 0 -249.4109 326.2138)">
				<stop  offset="0" style="stop-color:#FFFFFF;stop-opacity:0"/>
				<stop  offset="1" style="stop-color:#006591"/>
			</linearGradient>
			<path class="st17" d="M65.42,352.13c0-35.24,28.58-63.81,63.81-63.81c-59.38,0-107.53,48.15-107.53,107.53
				c0,8.28,0.93,16.33,2.7,24.07c4.8,7.4,10.36,14.26,16.57,20.47c22.59,22.59,53.79,36.57,88.26,36.57v-61.03
				c-17.62,0.01-33.57-7.14-45.12-18.68C72.57,385.7,65.42,369.75,65.42,352.13z"/>
			<defs>
				<filter id="Adobe_OpacityMaskFilter_6_" filterUnits="userSpaceOnUse" x="568.45" y="227.29" width="107.56" height="188.64">
					<feColorMatrix  type="matrix" values="1 0 0 0 0  0 1 0 0 0  0 0 1 0 0  0 0 0 1 0"/>
				</filter>
			</defs>
			<mask maskUnits="userSpaceOnUse" x="568.45" y="227.29" width="107.56" height="188.64" id="SVGID_15_">
				<g class="st18">

						<linearGradient id="SVGID_16_" gradientUnits="userSpaceOnUse" x1="620.8221" y1="417.2362" x2="620.8221" y2="225.3316" gradientTransform="matrix(1 -4.124290e-04 4.124290e-04 1 -0.1131 0.1065)">
						<stop  offset="0" style="stop-color:#FFFFFF"/>
						<stop  offset="0.7" style="stop-color:#000000"/>
					</linearGradient>
					<rect x="564.32" y="225.18" class="st19" width="113.04" height="191.9"/>
				</g>
			</mask>

				<linearGradient id="SVGID_17_" gradientUnits="userSpaceOnUse" x1="568.4739" y1="321.7345" x2="676.0017" y2="321.7345" gradientTransform="matrix(1 -4.124290e-04 4.124290e-04 1 -0.1131 0.1065)">
				<stop  offset="0" style="stop-color:#FFFFFF;stop-opacity:0"/>
				<stop  offset="1" style="stop-color:#006591"/>
			</linearGradient>
			<path class="st20" d="M632.32,352.09c0.01,35.24-28.55,63.83-63.78,63.84c59.38-0.02,107.51-48.2,107.48-107.57
				c0-8.28-0.94-16.33-2.71-24.07c-4.8-7.4-10.36-14.26-16.58-20.46c-22.59-22.58-53.81-36.54-88.27-36.53l0.03,61.03
				c17.62-0.02,33.57,7.12,45.13,18.66C625.16,318.52,632.31,334.47,632.32,352.09z"/>
		</g>
	</g>
</g>
</svg>
