<svg xmlns="http://www.w3.org/2000/svg" xmlns:xlink="http://www.w3.org/1999/xlink" viewBox="0 0 1743.42 316.71"><defs><style>.cls-1{fill:#38a7ca;}.cls-2{fill:#1d738e;}.cls-3,.cls-4{fill:#58e3c3;}.cls-4{fill-opacity:0.47;}.cls-5{fill:#42bac1;fill-opacity:0.31;}.cls-6{fill:url(#linear-gradient);}.cls-7{fill:url(#linear-gradient-2);}.cls-8{fill:url(#linear-gradient-3);}</style><linearGradient id="linear-gradient" x1="-604.69" y1="1434.53" x2="-451.12" y2="1690.19" gradientTransform="matrix(1, 0, 0, -1, 539.04, 1763.83)" gradientUnits="userSpaceOnUse"><stop offset="0" stop-color="#3aabbf"/><stop offset="1" stop-color="#5eedc1"/></linearGradient><linearGradient id="linear-gradient-2" x1="-327.48" y1="1475.44" x2="-327.48" y2="1709.59" gradientTransform="matrix(1, 0, 0, -1, 539.04, 1763.83)" gradientUnits="userSpaceOnUse"><stop offset="0" stop-color="#5ff1c4"/><stop offset="1" stop-color="#3aabbf"/></linearGradient><linearGradient id="linear-gradient-3" x1="-339.81" y1="1710.18" x2="-413.78" y2="1710.18" gradientTransform="matrix(1, 0, 0, -1, 539.04, 1763.83)" gradientUnits="userSpaceOnUse"><stop offset="0" stop-color="#3aabbf"/><stop offset="0" stop-color="#4fd2c2"/><stop offset="1" stop-color="#5eedc1"/></linearGradient></defs><g id="Layer_2" data-name="Layer 2"><g id="Layer_1-2" data-name="Layer 1"><path class="cls-1" d="M385.69,116.74q0-27.34,12.21-48.85a88.18,88.18,0,0,1,33.71-33.71Q453.12,22,479.66,22q31.07,0,54.42,15.93T566.73,82H524q-6.36-13.27-18.05-19.91-11.42-6.63-26.54-6.63a54.8,54.8,0,0,0-28.94,7.7,51.85,51.85,0,0,0-19.64,21.23q-6.9,13.8-6.9,32.39,0,18.31,6.9,32.38a53.77,53.77,0,0,0,19.64,21.51,56.42,56.42,0,0,0,28.94,7.43q15.12,0,26.54-6.64A45.57,45.57,0,0,0,524,151.25h42.74q-9.29,28.41-32.65,44.33Q511,211.24,479.66,211.24q-26.54,0-48.05-11.94a90.68,90.68,0,0,1-33.71-33.72Q385.69,144.08,385.69,116.74Zm325,57.18H636.91l-12.2,35.28H585.82L652.31,24H695.5L762,209.2H722.84Zm-10.25-30.23-26.62-77-26.62,77Zm180.24,64.25L840,136.13H822.56v71.81H786V24h68.37q21.14,0,36,7.64Q905.28,39,912.58,52a54.27,54.27,0,0,1,7.57,28.45,55.72,55.72,0,0,1-10.44,32.94q-10.44,14.49-31.05,20l43.58,74.57Zm-58.07-98.26h30.91q15.06,0,22.46-7.14,7.41-7.4,7.4-20.34,0-12.69-7.4-19.56-7.39-7.12-22.46-7.13H822.56Zm218,100.67a95.22,95.22,0,0,1-47.44-12.13,90.85,90.85,0,0,1-34.27-33.47Q946.16,143.14,946.15,116q0-26.88,12.65-48.23A90.32,90.32,0,0,1,993.07,34a95.31,95.31,0,0,1,47.44-12.12Q1066.6,21.9,1088,34a88.38,88.38,0,0,1,34,33.74Q1134.6,89.1,1134.6,116q0,27.15-12.65,48.76a88.87,88.87,0,0,1-34,33.47A95.24,95.24,0,0,1,1040.51,210.35Zm0-32.95q16.6,0,29.25-7.38a52.29,52.29,0,0,0,19.77-21.61q7.11-14,7.12-32.42t-7.12-32.15a50.59,50.59,0,0,0-19.77-21.35q-12.65-7.38-29.25-7.38T1011,62.49a50.65,50.65,0,0,0-19.77,21.35Q984.11,97.54,984.1,116t7.12,32.42A52.36,52.36,0,0,0,1011,170Q1023.91,177.4,1040.51,177.4ZM1198,24V137.87q0,18.72,9.71,28.73,9.72,9.75,27.32,9.75,17.87,0,27.58-9.75,9.71-10,9.71-28.73V24h37.79V137.61q0,23.46-10.28,39.8a63.57,63.57,0,0,1-27.14,24.25q-16.86,8.16-37.69,8.17a84.86,84.86,0,0,1-37.43-8.17,62.61,62.61,0,0,1-26.35-24.25q-9.75-16.35-9.76-39.8V24Zm211.38,185.46a87.8,87.8,0,0,1-34.56-6.55,56.55,56.55,0,0,1-24.08-18.85q-8.9-12.3-9.16-29.05h39.26q.78,11.25,7.86,17.8,7.32,6.54,19.89,6.54,12.81,0,20.15-6a20.42,20.42,0,0,0,7.34-16.23,18.63,18.63,0,0,0-5-13.35,33.4,33.4,0,0,0-12.56-8.11,171.55,171.55,0,0,0-20.42-6.81,243,243,0,0,1-29-10.21,53.93,53.93,0,0,1-19.12-15.44q-7.85-10.47-7.85-27.75,0-16.23,8.11-28.27T1373,28.86q14.67-6.54,33.51-6.55,28.26,0,45.8,13.88Q1470,49.8,1471.89,74.4h-40.31A20.38,20.38,0,0,0,1423.47,59q-7.34-6.28-19.64-6.28-10.72,0-17.28,5.49c-4.17,3.67-6.28,9-6.28,16A17.23,17.23,0,0,0,1385,86.45a42.5,42.5,0,0,0,12,7.85q7.34,2.88,20.41,6.81a211.71,211.71,0,0,1,29.07,10.47,52.28,52.28,0,0,1,19.37,15.7q8.1,10.47,8.1,27.49A51.7,51.7,0,0,1,1466.4,182q-7.61,12.57-22.26,20.16Q1429.48,209.47,1409.34,209.48ZM1543.12,54.25v46.61h61.73v29h-61.73V179h69.29v29H1506.59V24h105.82V54.25ZM1683,179h60.47v29h-97V24H1683Z"/><path class="cls-2" d="M416.92,306.2h17.64V315h-29V260.85h11.33Zm54.17-36.54v13.86h17.64v8.82H471.09V306.2h21.42V315H461V260.85h30.24v8.81Zm82.41,35.28H532.44L529,315H517.24l19.45-54.16h12.63L568.77,315H557Zm-2.78-8.82L543,273.71l-7.75,22.41ZM623.2,315,611.08,293.6h-5.2V315H594.55V260.85h21.21a25.32,25.32,0,0,1,11.18,2.25,15.5,15.5,0,0,1,9.23,14.35,15.82,15.82,0,0,1-3.24,9.7q-3.24,4.28-9.63,5.9l13.52,22Zm-17.32-29h8.63q4.2,0,6.27-2a7.7,7.7,0,0,0,2.06-5.68,7.11,7.11,0,0,0-2.06-5.46c-1.38-1.32-3.47-2-6.27-2h-8.63Zm103.3,29h-9.6l-25.67-37.12V315H662.57V260.85h9.6L697.84,298V260.85h11.34Zm40.31-54.16V315H738.15V260.85ZM825.08,315h-9.61L789.8,277.89V315H778.47V260.85h9.6L813.74,298V260.85h11.34Zm66.54-37.79a13,13,0,0,0-5.23-5.3,15.91,15.91,0,0,0-7.75-1.82,16.91,16.91,0,0,0-8.7,2.22,15.28,15.28,0,0,0-5.94,6.33,20.33,20.33,0,0,0-2.13,9.49,20.71,20.71,0,0,0,2.13,9.65,15.7,15.7,0,0,0,6.1,6.33,17.82,17.82,0,0,0,9,2.22A15.73,15.73,0,0,0,889.48,303a16.17,16.17,0,0,0,5.3-9.41h-18v-8.82h29v10A25.92,25.92,0,0,1,901,305.47a27.07,27.07,0,0,1-9.41,7.91,27.66,27.66,0,0,1-12.82,2.92,29.53,29.53,0,0,1-14.48-3.56,26.8,26.8,0,0,1-10.12-10,30.94,30.94,0,0,1,0-29.12,26.11,26.11,0,0,1,10.12-10,28.91,28.91,0,0,1,14.4-3.64,28.61,28.61,0,0,1,16.22,4.58,23.07,23.07,0,0,1,9.49,12.74Z"/><circle class="cls-3" cx="36.36" cy="220" r="35.66"/><circle class="cls-4" cx="141.41" cy="281.05" r="35.66"/><circle class="cls-5" cx="246.45" cy="223.77" r="35.66"/><path class="cls-6" d="M141,22.8a141,141,0,0,0-141,141H57.7A83.35,83.35,0,0,1,141,80.5Z"/><path class="cls-7" d="M141,22.8a141,141,0,0,1,141,141h-57.7A83.35,83.35,0,0,0,141,80.5Z"/><path class="cls-8" d="M199.23,53.65,125.92,0V107.3Z"/></g></g></svg>